<svg height="512" viewBox="0 0 64 64" width="512" xmlns="http://www.w3.org/2000/svg"><g id="Game_Network-Server-Gaming-Networking-Joystick" data-name="Game Network-Server-Gaming-Networking-Joystick"><path d="m23 31h2v2h-2z"/><path d="m27 32h2v2h-2z"/><path d="m23 38h2v2h-2z"/><path d="m27 39h2v2h-2z"/><path d="m26 24h12v2h-12z"/><path d="m44 39h3v5h2v-6a1 1 0 0 0 -1-1h-4v-10h4a1 1 0 0 0 1-1v-6h-2v5h-3c0-3.42-5.159-6-12-6s-12 2.58-12 6h-3v-5h-2v6a1 1 0 0 0 1 1h4v10h-4a1 1 0 0 0 -1 1v6h2v-5h3c0 3.42 5.159 6 12 6s12-2.58 12-6zm-12-18c5.724 0 10 2.112 10 4s-4.276 4-10 4-10-2.112-10-4 4.276-4 10-4zm-10 7.406c2.114 1.588 5.729 2.594 10 2.594s7.886-1.006 10-2.594v3.594c0 1.888-4.276 4-10 4s-10-2.112-10-4zm10 14.594c-5.724 0-10-2.112-10-4v-3.594c2.114 1.588 5.729 2.594 10 2.594s7.886-1.006 10-2.594v3.594c0 1.888-4.276 4-10 4z"/><path d="m23 46h-12a8.009 8.009 0 0 0 -8 8v5a3 3 0 0 0 3 3h3a1 1 0 0 0 .62-.215l4.521-3.57a1.008 1.008 0 0 1 .62-.215h4.478a1 1 0 0 1 .619.215l4.522 3.57a1 1 0 0 0 .62.215h3a3 3 0 0 0 3-3v-5a8.009 8.009 0 0 0 -8-8zm6 13a1 1 0 0 1 -1 1h-2.652l-4.248-3.355a3.016 3.016 0 0 0 -1.861-.645h-4.478a3.016 3.016 0 0 0 -1.86.646l-4.249 3.354h-2.652a1 1 0 0 1 -1-1v-5a6.006 6.006 0 0 1 6-6h12a6.006 6.006 0 0 1 6 6z"/><path d="m11 50h-2v2h-2v2h2v2h2v-2h2v-2h-2z"/><path d="m23 50h2v2h-2z"/><path d="m25 52h2v2h-2z"/><path d="m23 54h2v2h-2z"/><path d="m21 52h2v2h-2z"/><path d="m14 50h2v2h-2z"/><path d="m18 50h2v2h-2z"/><path d="m54 46h-12a8.009 8.009 0 0 0 -8 8v5a3 3 0 0 0 3 3h3a1 1 0 0 0 .62-.215l4.521-3.57a1.008 1.008 0 0 1 .62-.215h4.478a1 1 0 0 1 .619.215l4.522 3.57a1 1 0 0 0 .62.215h3a3 3 0 0 0 3-3v-5a8.009 8.009 0 0 0 -8-8zm6 13a1 1 0 0 1 -1 1h-2.652l-4.248-3.355a3.016 3.016 0 0 0 -1.861-.645h-4.478a3.016 3.016 0 0 0 -1.86.646l-4.249 3.354h-2.652a1 1 0 0 1 -1-1v-5a6.006 6.006 0 0 1 6-6h12a6.006 6.006 0 0 1 6 6z"/><path d="m42 50h-2v2h-2v2h2v2h2v-2h2v-2h-2z"/><path d="m54 50h2v2h-2z"/><path d="m56 52h2v2h-2z"/><path d="m54 54h2v2h-2z"/><path d="m52 52h2v2h-2z"/><path d="m45 50h2v2h-2z"/><path d="m49 50h2v2h-2z"/><path d="m6 18h3a1 1 0 0 0 .62-.215l4.521-3.57a1.008 1.008 0 0 1 .62-.215h4.478a1 1 0 0 1 .619.215l4.522 3.57a1 1 0 0 0 .62.215h3a3 3 0 0 0 3-3v-5a8.009 8.009 0 0 0 -8-8h-12a8.009 8.009 0 0 0 -8 8v5a3 3 0 0 0 3 3zm-1-8a6.006 6.006 0 0 1 6-6h12a6.006 6.006 0 0 1 6 6v5a1 1 0 0 1 -1 1h-2.652l-4.248-3.355a3.016 3.016 0 0 0 -1.861-.645h-4.478a3.016 3.016 0 0 0 -1.86.646l-4.249 3.354h-2.652a1 1 0 0 1 -1-1z"/><path d="m9 12h2v-2h2v-2h-2v-2h-2v2h-2v2h2z"/><path d="m23 6h2v2h-2z"/><path d="m25 8h2v2h-2z"/><path d="m23 10h2v2h-2z"/><path d="m21 8h2v2h-2z"/><path d="m14 6h2v2h-2z"/><path d="m18 6h2v2h-2z"/><path d="m54 2h-12a8.009 8.009 0 0 0 -8 8v5a3 3 0 0 0 3 3h3a1 1 0 0 0 .62-.215l4.521-3.57a1.008 1.008 0 0 1 .62-.215h4.478a1 1 0 0 1 .619.215l4.522 3.57a1 1 0 0 0 .62.215h3a3 3 0 0 0 3-3v-5a8.009 8.009 0 0 0 -8-8zm6 13a1 1 0 0 1 -1 1h-2.652l-4.248-3.355a3.016 3.016 0 0 0 -1.861-.645h-4.478a3.016 3.016 0 0 0 -1.86.646l-4.249 3.354h-2.652a1 1 0 0 1 -1-1v-5a6.006 6.006 0 0 1 6-6h12a6.006 6.006 0 0 1 6 6z"/><path d="m42 6h-2v2h-2v2h2v2h2v-2h2v-2h-2z"/><path d="m54 6h2v2h-2z"/><path d="m56 8h2v2h-2z"/><path d="m54 10h2v2h-2z"/><path d="m52 8h2v2h-2z"/><path d="m45 6h2v2h-2z"/><path d="m49 6h2v2h-2z"/><path d="m51 20h2v2h-2z"/><path d="m51 24h2v2h-2z"/><path d="m51 38h2v2h-2z"/><path d="m51 42h2v2h-2z"/><path d="m11 20h2v2h-2z"/><path d="m11 24h2v2h-2z"/><path d="m11 38h2v2h-2z"/><path d="m11 42h2v2h-2z"/></g></svg>