<?xml version="1.0" encoding="iso-8859-1"?>
<!-- Generator: Adobe Illustrator 19.0.0, SVG Export Plug-In . SVG Version: 6.00 Build 0)  -->
<svg version="1.1" id="Capa_1" xmlns="http://www.w3.org/2000/svg" xmlns:xlink="http://www.w3.org/1999/xlink" x="0px" y="0px"
	 viewBox="0 0 512 512" style="enable-background:new 0 0 512 512;" xml:space="preserve">
<g>
	<g>
		<path d="M490.206,211.999c-21.956-43.913-56.562-74.947-94.94-85.141c-26.055-6.914-52.126-3.2-73.653,10.474
			c-42.716,16.233-89.971,16.994-133.478,2.066c-21.395-13.411-46.242-16.931-71.999-10.137
			c-37.634,9.914-71.856,40.45-93.892,83.778c-38.177,75.067-26.066,161.707,27.531,197.223
			c21.161,14.109,47.181,18.167,73.27,11.442c35.979-9.29,68.839-37.233,90.927-77.225c25.86-9.971,55.165-9.679,80.699,0.584
			c22.288,40.81,55.824,69.509,92.576,79.056c8.437,2.192,16.868,3.274,25.133,3.274c17.789,0,34.829-5.008,49.55-14.767
			C515.356,377.661,528.04,287.667,490.206,211.999z M443.048,383.946c-13.605,9.009-29.907,11.402-47.158,6.931
			c-28.144-7.315-55.406-31.893-72.8-65.508c-3.137-6.319-8.551-9.003-10.589-10.017c-0.258-0.126-0.515-0.246-0.778-0.366
			c-18.482-8.065-38.418-12.111-58.308-12.111c-17.807,0-35.585,3.251-52.246,9.748l-1.191,0.298
			c-1.236,0.303-2.444,0.756-3.577,1.322c-2.204,1.11-7.372,3.703-10.383,9.736c-17.211,33.255-43.958,57.358-71.541,64.478
			c-16.742,4.316-32.522,1.975-45.675-6.794c-38.017-25.196-45.315-95.283-15.935-153.053
			c17.343-34.102,44.267-58.823,72.028-66.138c16.822-4.43,32.826-2.066,46.276,6.846c1.259,0.83,2.621,1.5,4.052,1.975l1.545,0.515
			c51.674,17.835,108.121,16.736,158.948-3.097c1.15-0.452,2.249-1.025,3.28-1.711c13.72-9.147,30.135-11.539,47.461-6.943
			c28.441,7.555,55.743,32.711,73.035,67.305C489.273,286.923,481.786,358.601,443.048,383.946z"/>
	</g>
</g>
<g>
	<g>
		<path d="M256.208,84.606c-9.484,0-17.171,7.687-17.171,17.171v62.961c0,9.484,7.687,17.171,17.171,17.171
			c9.479,0,17.166-7.687,17.171-17.171v-62.961C273.379,92.293,265.692,84.606,256.208,84.606z"/>
	</g>
</g>
<g>
	<g>
		<path d="M133.147,204.804c-29.981,0-54.375,24.395-54.375,54.375c0,29.981,24.395,54.376,54.375,54.376
			s54.376-24.395,54.376-54.376C187.523,229.199,163.128,204.804,133.147,204.804z M133.147,279.213
			c-11.047,0-20.033-8.986-20.033-20.033c0-11.047,8.986-20.033,20.033-20.033c11.041,0,20.033,8.986,20.033,20.033
			C153.181,270.227,144.194,279.213,133.147,279.213z"/>
	</g>
</g>
<g>
	<g>
		<path d="M387.848,204.804c-9.484,0-17.171,7.687-17.171,17.171v80.132c0,9.484,7.687,17.171,17.171,17.171
			c9.484,0,17.171-7.681,17.171-17.171v-80.132C405.019,212.491,397.332,204.804,387.848,204.804z"/>
	</g>
</g>
<g>
	<g>
		<path d="M427.914,244.87h-80.132c-9.484,0-17.171,7.687-17.171,17.171s7.687,17.171,17.171,17.171h80.132
			c9.484,0,17.171-7.681,17.171-17.171C445.086,252.557,437.399,244.87,427.914,244.87z"/>
	</g>
</g>
<g>
</g>
<g>
</g>
<g>
</g>
<g>
</g>
<g>
</g>
<g>
</g>
<g>
</g>
<g>
</g>
<g>
</g>
<g>
</g>
<g>
</g>
<g>
</g>
<g>
</g>
<g>
</g>
<g>
</g>
</svg>
